# xmcd
#
# Track frame offsets: 
#        150
#        13277
#        25559
#        37056
#        51054
#        61533
#        73634
#        85527
#        96773
#        109915
#        122170
#        134110
#        145691
#        155504
#        167584
#        180910
#        194494
#        206408
#        219266
#        231042
#        242980
#
# Disc length: 3394 seconds
#
# Revision: 0
# Processed by: cddbd v1.5.2PL0 Copyright (c) Steve Scherf et al.
# Submitted via: ExactAudioCopyFreeDBPlugin 1.0
#
DISCID=1e0d4015
DTITLE=Various Artist - Country Western Classics 2
DYEAR=1900
DGENRE=Country
TTITLE0=Hank Williams - Hey Good Lookin'
TTITLE1=Leon Payne - I Love You Because
TTITLE2=The Stanley Brothers - The Fields Have Turned Brown
TTITLE3=Tommy Duncan - Gamblin' Polkadot Blues
TTITLE4=Andy Schroder - Prairie Dog Ramble
TTITLE5=Hank Williams - Lost Highway
TTITLE6=Billy Briggs - Panhandle Shuffle
TTITLE7=Lone Star Playboys - Steel Guitar Bounce
TTITLE8=Johnny Bond - Birmingham Jail
TTITLE9=Hank Williams - Honky Tonkin'
TTITLE10=Red Foley - Tennessee Saturday Night
TTITLE11=Pee Wee King - Bull Fiddle Boogie
TTITLE12=Hank Williams - Honky Tonk Blues
TTITLE13=The Delmore Brothers - Peach Steel Boogie
TTITLE14=Jimmy Wakely - Mine All Mine
TTITLE15=Tommy Sargent - Steel Guitar Boogie
TTITLE16=Jack Rivers - Dear Oakie
TTITLE17=Paul Howard - Drinking All My Troubles Away
TTITLE18=Hank Williams - Why Should we try Anymore
TTITLE19=Merle Travis - Nine Pound Hammer
TTITLE20=Link Davis - Texas Swing
EXTD=
EXTT0=
EXTT1=
EXTT2=
EXTT3=
EXTT4=
EXTT5=
EXTT6=
EXTT7=
EXTT8=
EXTT9=
EXTT10=
EXTT11=
EXTT12=
EXTT13=
EXTT14=
EXTT15=
EXTT16=
EXTT17=
EXTT18=
EXTT19=
EXTT20=
PLAYORDER=
